<svg width="118" height="31" viewBox="0 0 118 31" fill="none" xmlns="http://www.w3.org/2000/svg">
<path d="M4.94318 0.727272V24H0.0227273V0.727272H4.94318ZM15.4842 30.9091C13.916 30.9091 12.5713 30.6932 11.4501 30.2614C10.3365 29.8371 9.45011 29.2576 8.79102 28.5227C8.13193 27.7879 7.7039 26.9621 7.50693 26.0455L11.9842 25.4432C12.1206 25.7917 12.3365 26.1174 12.6319 26.4205C12.9274 26.7235 13.3175 26.9659 13.8024 27.1477C14.2948 27.3371 14.8933 27.4318 15.5978 27.4318C16.6509 27.4318 17.5183 27.1742 18.2001 26.6591C18.8895 26.1515 19.2342 25.2992 19.2342 24.1023V20.9091H19.0297C18.8175 21.3939 18.4994 21.8523 18.0751 22.2841C17.6509 22.7159 17.1054 23.0682 16.4388 23.3409C15.7721 23.6136 14.9766 23.75 14.0524 23.75C12.7418 23.75 11.5486 23.447 10.4728 22.8409C9.40466 22.2273 8.55239 21.2917 7.91602 20.0341C7.28724 18.7689 6.97284 17.1705 6.97284 15.2386C6.97284 13.2614 7.29481 11.6098 7.93875 10.2841C8.58269 8.95833 9.43875 7.96591 10.5069 7.30682C11.5827 6.64773 12.7607 6.31818 14.041 6.31818C15.0183 6.31818 15.8365 6.48485 16.4956 6.81818C17.1547 7.14394 17.685 7.55303 18.0865 8.04545C18.4956 8.5303 18.81 9.00758 19.0297 9.47727H19.2115V6.54545H24.0183V24.1705C24.0183 25.6553 23.6547 26.8977 22.9274 27.8977C22.2001 28.8977 21.1925 29.6477 19.9047 30.1477C18.6244 30.6553 17.1509 30.9091 15.4842 30.9091ZM15.5865 20.1136C16.3668 20.1136 17.0259 19.9205 17.5638 19.5341C18.1092 19.1402 18.5259 18.5795 18.8138 17.8523C19.1092 17.1174 19.2569 16.2386 19.2569 15.2159C19.2569 14.1932 19.113 13.3068 18.8251 12.5568C18.5372 11.7992 18.1206 11.2121 17.5751 10.7955C17.0297 10.3788 16.3668 10.1705 15.5865 10.1705C14.791 10.1705 14.1206 10.3864 13.5751 10.8182C13.0297 11.2424 12.6168 11.8333 12.3365 12.5909C12.0562 13.3485 11.916 14.2235 11.916 15.2159C11.916 16.2235 12.0562 17.0947 12.3365 17.8295C12.6244 18.5568 13.0372 19.1212 13.5751 19.5227C14.1206 19.9167 14.791 20.1136 15.5865 20.1136ZM26.6815 24V0.727272H31.5224V9.47727H31.6701C31.8822 9.00758 32.1891 8.5303 32.5906 8.04545C32.9997 7.55303 33.53 7.14394 34.1815 6.81818C34.8406 6.48485 35.6588 6.31818 36.636 6.31818C37.9088 6.31818 39.083 6.65152 40.1588 7.31818C41.2345 7.97727 42.0944 8.97348 42.7383 10.3068C43.3822 11.6326 43.7042 13.2955 43.7042 15.2955C43.7042 17.2424 43.3898 18.8864 42.761 20.2273C42.1398 21.5606 41.2913 22.572 40.2156 23.2614C39.1474 23.9432 37.9504 24.2841 36.6247 24.2841C35.6853 24.2841 34.886 24.1288 34.2269 23.8182C33.5754 23.5076 33.0413 23.1174 32.6247 22.6477C32.208 22.1705 31.8898 21.6894 31.6701 21.2045H31.4542V24H26.6815ZM31.4201 15.2727C31.4201 16.3106 31.5641 17.2159 31.8519 17.9886C32.1398 18.7614 32.5565 19.3636 33.1019 19.7955C33.6474 20.2197 34.3103 20.4318 35.0906 20.4318C35.8784 20.4318 36.5451 20.2159 37.0906 19.7841C37.636 19.3447 38.0489 18.7386 38.3292 17.9659C38.6171 17.1856 38.761 16.2879 38.761 15.2727C38.761 14.2652 38.6209 13.3788 38.3406 12.6136C38.0603 11.8485 37.6474 11.25 37.1019 10.8182C36.5565 10.3864 35.886 10.1705 35.0906 10.1705C34.3027 10.1705 33.636 10.3788 33.0906 10.7955C32.5527 11.2121 32.1398 11.803 31.8519 12.5682C31.5641 13.3333 31.4201 14.2348 31.4201 15.2727ZM53.5407 24.3409C51.7755 24.3409 50.249 23.9659 48.9611 23.2159C47.6808 22.4583 46.6922 21.4053 45.9952 20.0568C45.2983 18.7008 44.9498 17.1288 44.9498 15.3409C44.9498 13.5379 45.2983 11.9621 45.9952 10.6136C46.6922 9.25758 47.6808 8.20454 48.9611 7.45454C50.249 6.69697 51.7755 6.31818 53.5407 6.31818C55.3058 6.31818 56.8286 6.69697 58.1089 7.45454C59.3967 8.20454 60.3892 9.25758 61.0861 10.6136C61.7831 11.9621 62.1316 13.5379 62.1316 15.3409C62.1316 17.1288 61.7831 18.7008 61.0861 20.0568C60.3892 21.4053 59.3967 22.4583 58.1089 23.2159C56.8286 23.9659 55.3058 24.3409 53.5407 24.3409ZM53.5634 20.5909C54.3664 20.5909 55.0369 20.3636 55.5748 19.9091C56.1127 19.447 56.518 18.8182 56.7907 18.0227C57.071 17.2273 57.2111 16.322 57.2111 15.3068C57.2111 14.2917 57.071 13.3864 56.7907 12.5909C56.518 11.7955 56.1127 11.1667 55.5748 10.7045C55.0369 10.2424 54.3664 10.0114 53.5634 10.0114C52.7528 10.0114 52.071 10.2424 51.518 10.7045C50.9725 11.1667 50.5596 11.7955 50.2793 12.5909C50.0066 13.3864 49.8702 14.2917 49.8702 15.3068C49.8702 16.322 50.0066 17.2273 50.2793 18.0227C50.5596 18.8182 50.9725 19.447 51.518 19.9091C52.071 20.3636 52.7528 20.5909 53.5634 20.5909ZM74.2278 24H68.9551L76.9892 0.727272H83.3301L91.3528 24H86.0801L80.2506 6.04545H80.0687L74.2278 24ZM73.8983 14.8523H86.3528V18.6932H73.8983V14.8523ZM92.874 24V0.727272H102.056C103.821 0.727272 105.325 1.06439 106.567 1.73864C107.81 2.4053 108.757 3.33333 109.408 4.52273C110.067 5.70454 110.397 7.06818 110.397 8.61364C110.397 10.1591 110.063 11.5227 109.397 12.7045C108.73 13.8864 107.764 14.8068 106.499 15.4659C105.241 16.125 103.719 16.4545 101.931 16.4545H96.0785V12.5114H101.135C102.082 12.5114 102.863 12.3485 103.476 12.0227C104.097 11.6894 104.56 11.2311 104.863 10.6477C105.173 10.0568 105.329 9.37879 105.329 8.61364C105.329 7.84091 105.173 7.16667 104.863 6.59091C104.56 6.00757 104.097 5.55682 103.476 5.23864C102.855 4.91288 102.067 4.75 101.113 4.75H97.7944V24H92.874ZM117.233 0.727272V24H112.313V0.727272H117.233Z" fill="url(#paint0_linear_1948_6152)"/>
<defs>
<linearGradient id="paint0_linear_1948_6152" x1="28.5" y1="-28.5" x2="28.5" y2="51" gradientUnits="userSpaceOnUse">
<stop stop-color="#686868"/>
<stop offset="1"/>
</linearGradient>
</defs>
</svg>
